<svg width="31" height="32" viewBox="0 0 31 32" fill="none" xmlns="http://www.w3.org/2000/svg">
<circle cx="15.08" cy="16" r="14.83" fill="#FAFAFA" stroke="#E4225F" stroke-width="0.5"/>
<path d="M20.3393 22.0124C19.048 22.0124 17.7317 21.7007 16.3903 21.0773C15.0489 20.4539 13.8049 19.569 12.6584 18.4224C11.5118 17.2758 10.6268 16.0318 10.0034 14.6905C9.38005 13.3491 9.06836 12.0327 9.06836 10.7414C9.06836 10.5268 9.13992 10.3479 9.28304 10.2047C9.42616 10.0616 9.60507 9.99005 9.81976 9.99005H12.1574C12.3133 9.99005 12.4469 10.0457 12.5582 10.157C12.6695 10.2683 12.7474 10.4075 12.7919 10.5745L13.2416 12.6724C13.2647 12.8322 13.2623 12.9762 13.2344 13.1042C13.2066 13.2322 13.1469 13.342 13.0553 13.4335L11.3893 15.1162C11.6788 15.606 11.9849 16.0624 12.3077 16.4855C12.6305 16.9085 12.9868 17.3092 13.3764 17.6877C13.7882 18.1107 14.2224 18.4975 14.6788 18.8482C15.1352 19.1988 15.6139 19.5077 16.1148 19.7749L17.7011 18.1385C17.8124 18.0161 17.9412 17.9326 18.0876 17.8881C18.234 17.8435 18.3779 17.8324 18.5193 17.8547L20.5063 18.2888C20.6733 18.3333 20.8124 18.4226 20.9237 18.5567C21.035 18.6908 21.0907 18.8408 21.0907 19.0068V21.261C21.0907 21.4757 21.0191 21.6546 20.876 21.7977C20.7329 21.9408 20.554 22.0124 20.3393 22.0124ZM10.8884 14.1979L12.2409 12.8287L11.8569 10.9919H10.0702C10.0925 11.4594 10.1676 11.952 10.2956 12.4697C10.4237 12.9873 10.6212 13.5634 10.8884 14.1979ZM17.0499 20.2591C17.5063 20.4706 18.0016 20.6432 18.536 20.7768C19.0703 20.9103 19.5879 20.9883 20.0888 21.0105V19.2239L18.369 18.8732L17.0499 20.2591Z" fill="#E4225F"/>
</svg>
