<svg width="23" height="32" viewBox="0 0 23 32" fill="none" xmlns="http://www.w3.org/2000/svg">
<path d="M11.6225 31.4792L11.437 31.6468L11.6225 31.8522L11.808 31.6468L11.6225 31.4792ZM11.6225 0.879211C5.6117 0.879211 0.75 5.74092 0.75 11.7517H1.25C1.25 6.01706 5.88784 1.37921 11.6225 1.37921V0.879211ZM0.75 11.7517C0.75 13.794 1.42934 16.0601 2.43161 18.2974C3.43536 20.5379 4.77147 22.7679 6.10401 24.7429C7.43702 26.7186 8.76954 28.4437 9.76862 29.6747C10.2683 30.2903 10.6848 30.7827 10.9767 31.1215C11.1226 31.2909 11.2374 31.4219 11.3158 31.5107C11.355 31.5551 11.3852 31.589 11.4056 31.6118C11.4158 31.6232 11.4236 31.6319 11.4288 31.6377C11.4315 31.6407 11.4335 31.6429 11.4348 31.6444C11.4355 31.6451 11.436 31.6457 11.4364 31.6461C11.4366 31.6463 11.4367 31.6465 11.4368 31.6466C11.4369 31.6467 11.437 31.6468 11.6225 31.4792C11.808 31.3116 11.808 31.3116 11.808 31.3116C11.8079 31.3115 11.8078 31.3114 11.8076 31.3112C11.8074 31.3109 11.8069 31.3104 11.8063 31.3097C11.8051 31.3084 11.8032 31.3063 11.8008 31.3036C11.7958 31.2981 11.7883 31.2897 11.7785 31.2787C11.7587 31.2565 11.7292 31.2234 11.6906 31.1797C11.6134 31.0923 11.5 30.9629 11.3555 30.7951C11.0664 30.4596 10.6531 29.971 10.1568 29.3596C9.16421 28.1365 7.8411 26.4235 6.51849 24.4632C5.1954 22.5022 3.87589 20.2982 2.88792 18.0929C1.89847 15.8844 1.25 13.6928 1.25 11.7517H0.75ZM11.6225 31.4792C11.808 31.6468 11.8081 31.6467 11.8082 31.6466C11.8083 31.6465 11.8084 31.6463 11.8086 31.6461C11.809 31.6457 11.8095 31.6451 11.8102 31.6444C11.8115 31.6429 11.8135 31.6407 11.8162 31.6377C11.8214 31.6319 11.8292 31.6232 11.8394 31.6118C11.8598 31.589 11.8899 31.5551 11.9292 31.5107C12.0076 31.4219 12.1224 31.2909 12.2683 31.1215C12.5602 30.7827 12.9767 30.2903 13.4764 29.6747C14.4755 28.4437 15.808 26.7186 17.141 24.7429C18.4735 22.7679 19.8096 20.5379 20.8134 18.2974C21.8157 16.0601 22.495 13.794 22.495 11.7517H21.995C21.995 13.6928 21.3465 15.8844 20.3571 18.0929C19.3691 20.2982 18.0496 22.5022 16.7265 24.4632C15.4039 26.4235 14.0808 28.1365 13.0881 29.3596C12.5919 29.971 12.1786 30.4596 11.8895 30.7951C11.745 30.9629 11.6316 31.0923 11.5544 31.1797C11.5158 31.2234 11.4863 31.2565 11.4665 31.2787C11.4566 31.2897 11.4492 31.2981 11.4442 31.3036C11.4417 31.3063 11.4399 31.3084 11.4387 31.3097C11.4381 31.3104 11.4376 31.3109 11.4373 31.3112C11.4372 31.3114 11.4371 31.3115 11.437 31.3116C11.437 31.3116 11.437 31.3116 11.6225 31.4792ZM22.495 11.7517C22.495 5.74092 17.6333 0.879211 11.6225 0.879211V1.37921C17.3571 1.37921 21.995 6.01706 21.995 11.7517H22.495ZM11.6202 15.2965C9.66416 15.2965 8.07649 13.7088 8.07649 11.7527H7.57649C7.57649 13.985 9.38802 15.7965 11.6202 15.7965V15.2965ZM8.07649 11.7527C8.07649 9.79665 9.66416 8.20898 11.6202 8.20898V7.70898C9.38802 7.70898 7.57649 9.52051 7.57649 11.7527H8.07649ZM11.6202 8.20898C13.5763 8.20898 15.164 9.79665 15.164 11.7527H15.664C15.664 9.52051 13.8525 7.70898 11.6202 7.70898V8.20898ZM15.164 11.7527C15.164 13.7088 13.5763 15.2965 11.6202 15.2965V15.7965C13.8525 15.7965 15.664 13.985 15.664 11.7527H15.164Z" fill="#E4225F"/>
</svg>
